# xmcd CD database file
#
# Track frame offsets:
#	182
#	25730
#	50032
#	79660
#	100217
#	115987
#	145732
#	169547
#	197520
#	223375
#	246580
#	271682
#
# Disc length: 3877 seconds
#
# Revision: 0
# Processed by: cddbd v1.5.1PL0 Copyright (c) Steve Scherf et al.
# Submitted via: CDex 1.51
#
DISCID=a90f230c
DTITLE=Gateway City Six - Swing to This!!
DYEAR=1994
DGENRE=Jazz
TTITLE0=Wolverine Blues
TTITLE1=Sweet Georgia Brown
TTITLE2=Basin Street Blues
TTITLE3=Limestone Blues
TTITLE4=C Jam Blues
TTITLE5=West End Blues
TTITLE6=Fidgety Feet
TTITLE7=Undecided
TTITLE8=What A Wonderful World
TTITLE9=Preacher
TTITLE10=Do You Know What it Means to Miss New Orleans?
TTITLE11=I Got Rhythm
EXTD=YEAR: 1994
EXTT0=
EXTT1=
EXTT2=
EXTT3=
EXTT4=
EXTT5=
EXTT6=
EXTT7=
EXTT8=
EXTT9=
EXTT10=
EXTT11=
PLAYORDER=
